<svg xmlns="http://www.w3.org/2000/svg" xmlns:xlink="http://www.w3.org/1999/xlink" version="1.1" id="Layer_1" x="0px" y="0px" viewBox="0 0 100 100" enable-background="new 0 0 100 100" xml:space="preserve">
<g style="fill:#999999">
	<g >
		<rect x="43.113" y="12.5" width="13.775" height="13.775"/>
		<rect x="43.113" y="73.725" width="13.775" height="13.775"/>
		<rect x="12.5" y="43.112" width="13.776" height="13.775"/>
		<rect x="73.725" y="43.112" width="13.775" height="13.775"/>
		<rect x="21.466" y="64.758" transform="matrix(-0.707 -0.7072 0.7072 -0.707 -2.264 142.3531)" width="13.778" height="13.775"/>
		
		<rect x="64.758" y="21.465" transform="matrix(-0.7071 -0.7071 0.7071 -0.7071 102.2628 99.0627)" width="13.777" height="13.777"/>
		<rect x="64.76" y="64.761" transform="matrix(-0.707 0.7072 -0.7072 -0.707 172.976 71.6315)" width="13.776" height="13.779"/>
		<rect x="21.467" y="21.469" transform="matrix(-0.7071 0.7071 -0.7071 -0.7071 68.4556 28.3577)" width="13.776" height="13.776"/>
	</g>
	<path d="M50,19.388c-16.907,0-30.612,13.705-30.612,30.612c0,16.905,13.705,30.612,30.612,30.612S80.612,66.905,80.612,50  C80.612,33.093,66.907,19.388,50,19.388z M50,65.307c-8.452,0-15.306-6.854-15.306-15.307S41.548,34.694,50,34.694  c8.453,0,15.306,6.854,15.306,15.306S58.453,65.307,50,65.307z"/>
	

</g>
</svg>