<?xml version="1.0" encoding="UTF-8" standalone="no"?>
<!-- Created with Inkscape (http://www.inkscape.org/) -->

<svg
   xmlns:dc="http://purl.org/dc/elements/1.1/"
   xmlns:cc="http://creativecommons.org/ns#"
   xmlns:rdf="http://www.w3.org/1999/02/22-rdf-syntax-ns#"
   xmlns:svg="http://www.w3.org/2000/svg"
   xmlns="http://www.w3.org/2000/svg"
   version="1.1"
   viewBox="0 0 16 16"
   xml:space="preserve">
<path
   d="M 5.4225701,7.0764512 C 5.0934322,6.8399738 4.7363032,6.6382443 4.351183,6.4712623 3.9660628,6.3042803 3.6079685,6.1421244 3.2788306,5.9838294 2.9496928,5.8264996 2.6755721,5.6546915 2.458399,5.4684054 2.2392956,5.2830843 2.1302265,5.0504678 2.1302265,4.7724863 c 0,-0.2972857 0.1187212,-0.5337631 0.3551986,-0.7103972 C 2.7219024,3.885455 3.063588,3.7976205 3.5085515,3.7976205 c 0.4729547,0 0.9140573,0.053087 1.3223426,0.1602255 0.4082854,0.1071388 0.7142581,0.2248948 0.9188834,0.3551986 L 6.34821,2.7117552 C 6.0238982,2.5264342 5.6107868,2.3845478 5.1098409,2.2880264 4.6079298,2.1905399 4.0751318,2.141314 3.5085515,2.141314 3.0162926,2.141314 2.5713291,2.197297 2.1717306,2.308296 1.7721322,2.4192955 1.4275509,2.5920688 1.1350912,2.82372 0.84263148,3.0553713 0.61773671,3.3459006 0.45944168,3.6933775 0.30211186,4.0418196 0.22392956,4.4520354 0.22392956,4.9259553 c 0,0.5472761 0.10906914,0.9980308 0.32720741,1.3503338 0.21813828,0.352303 0.49129373,0.6466931 0.82139673,0.8841356 0.3291379,0.2364774 0.686267,0.4362766 1.0713872,0.5984326 0.3851202,0.1631211 0.7422492,0.3194856 1.0723523,0.4719894 0.3291379,0.1553994 0.6022933,0.3243118 0.8213968,0.5096327 0.2181383,0.1862863 0.3272074,0.4256593 0.3272074,0.7239103 0,0.3899463 -0.1515386,0.6804753 -0.4526852,0.8706223 -0.3021118,0.190148 -0.7354928,0.284738 -1.3020731,0.284738 -0.2413035,0 -0.4758504,-0.0193 -0.7036408,-0.05695 C 1.9786879,10.52709 1.7634453,10.479795 1.55882,10.424777 1.3551599,10.36783 1.1717693,10.307987 1.0096134,10.243317 0.84745756,10.177683 0.71425807,10.116874 0.61291065,10.061857 L 0,11.691137 c 0.25095554,0.130304 0.64090184,0.258678 1.1688737,0.388016 0.5289371,0.130304 1.1418477,0.195938 1.8377667,0.195938 0.528937,0 1.0144395,-0.06081 1.4545769,-0.181459 C 4.9023199,11.97298 5.2777881,11.786694 5.5885868,11.535738 5.8993856,11.284782 6.140689,10.972054 6.312497,10.596585 6.4852702,10.224013 6.5721395,9.7751885 6.5721395,9.2549384 6.5721395,8.7366187 6.4630704,8.3013073 6.2449321,7.9538304 6.0258286,7.6053882 5.7526732,7.3138938 5.4225701,7.0764512 z M 13.755259,11.084983 C 13.71762,10.719167 13.699272,10.34563 13.699272,9.9653356 V 5.1199632 h -1.809776 v 4.4959651 c -0.111964,0.2982509 -0.280877,0.5482407 -0.507702,0.7519017 -0.22779,0.20366 -0.512529,0.306938 -0.85711,0.306938 -0.388981,0 -0.651519,-0.126443 -0.7856837,-0.377399 C 9.6048406,10.046413 9.5372757,9.6390933 9.5372757,9.0715477 V 5.1209284 H 7.7275002 v 4.3299483 c 0,0.5463109 0.04826,1.0009273 0.1457473,1.3628813 0.097487,0.361955 0.2384077,0.650555 0.4237287,0.863867 0.185321,0.215243 0.4179375,0.367746 0.6968842,0.460406 0.2779816,0.09266 0.5936064,0.139956 0.9459094,0.139956 0.5192842,0 0.9700392,-0.116791 1.3503342,-0.348442 0.380294,-0.23165 0.67758,-0.524111 0.890892,-0.876413 h 0.05599 l 0.320451,1.028917 H 13.92225 C 13.84793,11.784764 13.791946,11.45273 13.755267,11.084983 z"
   id="path3003"
   style="fill:#a0d304" />
</svg>